<?xml version="1.0" encoding="utf-8"?>
<svg viewBox="0 0 250 250" xmlns="http://www.w3.org/2000/svg">
  <g id="g3841" transform="matrix(0.821357, 0, 0, 0.827052, 904.575562, -770.743225)">
    <path id="path3047" d="m-995.72 1225.8c-0.2729-0.7794-1.645-6.0275-3.049-11.662-4.441-17.823-12.122-36.988-22.546-56.255-5.9844-11.061-7.0667-12.824-24.551-40-28.252-43.911-33.217-56.241-32.173-79.89 0.9573-21.672 8.2717-37.909 24.149-53.61 13.179-13.032 27.807-20.549 45.601-23.432 44.097-7.1446 86.878 21.883 95.546 64.828 2.0208 10.012 1.5723 27.243-0.95271 36.604-2.77 10.269-13.883 31.045-29.589 55.315-28.348 43.807-39.082 65.687-47.119 96.05-3.1117 11.755-4.3985 14.673-5.3161 12.052z" style="stroke:#5a0000;stroke-width:5.7;fill:#f41922"/>
    <path id="path3049" style="stroke-width:0;fill:#0e232e" d="M -959.904 1053.879 C -959.904 1072.029 -975.319 1086.744 -994.335 1086.744 C -1013.349 1086.744 -1028.765 1072.029 -1028.765 1053.879 C -1028.765 1035.728 -1013.35 1021.014 -994.335 1021.014 C -975.319 1021.014 -959.904 1035.728 -959.904 1053.879 Z"/>
  </g>
</svg>
