<?xml version="1.0" encoding="utf-8"?>
<svg viewBox="0 0 250 250" xmlns="http://www.w3.org/2000/svg">
  <g id="g3841" transform="matrix(0.821357, 0, 0, 0.827052, 904.575562, -770.743225)">
    <path id="path3047" d="m-995.72 1225.8c-0.2729-0.7794-1.645-6.0275-3.049-11.662-4.441-17.823-12.122-36.988-22.546-56.255-5.9844-11.061-7.0667-12.824-24.551-40-28.252-43.911-33.217-56.241-32.173-79.89 0.9573-21.672 8.2717-37.909 24.149-53.61 13.179-13.032 27.807-20.549 45.601-23.432 44.097-7.1446 86.878 21.883 95.546 64.828 2.0208 10.012 1.5723 27.243-0.95271 36.604-2.77 10.269-13.883 31.045-29.589 55.315-28.348 43.807-39.082 65.687-47.119 96.05-3.1117 11.755-4.3985 14.673-5.3161 12.052z" style="stroke:#5a0000;stroke-width:5.7;fill:#f41922"/>
    <path id="path3049" style="stroke-width:0;fill:#0e232e" d="M -959.904 1053.879 C -959.904 1072.029 -975.319 1086.744 -994.335 1086.744 C -1013.349 1086.744 -1028.765 1072.029 -1028.765 1053.879 C -1028.765 1035.728 -1013.35 1021.014 -994.335 1021.014 C -975.319 1021.014 -959.904 1035.728 -959.904 1053.879 Z"/>
  </g>
  <path opacity="1" d="M 156.446 6.973 C 158.918 6.973 161.199 8.12 162.452 10.002 L 200.056 66.275 C 201.328 68.172 201.328 70.512 200.092 72.407 C 198.855 74.304 196.54 75.481 194.051 75.481 L 118.841 75.481 C 116.352 75.481 114.036 74.304 112.8 72.407 C 111.564 70.512 111.581 68.156 112.835 66.275 L 150.44 10.002 C 151.693 8.12 153.974 6.973 156.446 6.973 Z M 156.446 26.547 C 154.13 26.547 152.267 28.183 152.267 30.217 L 152.267 47.344 C 152.267 49.378 154.13 51.014 156.446 51.014 C 158.762 51.014 160.624 49.378 160.624 47.344 L 160.624 30.217 C 160.624 28.183 158.762 26.547 156.446 26.547 Z M 162.017 60.801 C 162.017 57.034 157.374 54.68 153.66 56.562 C 151.936 57.437 150.875 59.052 150.875 60.801 C 150.875 64.567 155.517 66.922 159.232 65.039 C 160.955 64.164 162.017 62.549 162.017 60.801 Z" style="fill: rgb(207, 151, 23);"/>
  <title id="title2993">map pin</title>
</svg>
